<svg xmlns="http://www.w3.org/2000/svg" viewBox="-28.000 -28.000 56.000 56.000" width="56.000" height="56.000">
  <line x1="12.767" y1="2.448" x2="16.612" y2="3.185" stroke="#1f77b4" stroke-width="0.500"/>
  <line x1="16.612" y1="3.185" x2="16.640" y2="3.189" stroke="#1f77b4" stroke-width="0.500"/>
  <line x1="16.640" y1="3.189" x2="16.725" y2="3.198" stroke="#1f77b4" stroke-width="0.500"/>
  <line x1="16.725" y1="3.198" x2="16.871" y2="3.204" stroke="#1f77b4" stroke-width="0.500"/>
  <line x1="16.871" y1="3.204" x2="17.080" y2="3.200" stroke="#1f77b4" stroke-width="0.500"/>
  <line x1="17.080" y1="3.200" x2="17.358" y2="3.178" stroke="#1f77b4" stroke-width="0.500"/>
  <line x1="17.358" y1="3.178" x2="17.712" y2="3.128" stroke="#1f77b4" stroke-width="0.500"/>
  <line x1="17.712" y1="3.128" x2="18.149" y2="3.037" stroke="#1f77b4" stroke-width="0.500"/>
  <line x1="18.149" y1="3.037" x2="18.678" y2="2.887" stroke="#1f77b4" stroke-width="0.500"/>
  <line x1="18.678" y1="2.887" x2="19.312" y2="2.658" stroke="#1f77b4" stroke-width="0.500"/>
  <line x1="19.312" y1="2.658" x2="20.063" y2="2.319" stroke="#1f77b4" stroke-width="0.500"/>
  <line x1="20.063" y1="2.319" x2="20.945" y2="1.829" stroke="#1f77b4" stroke-width="0.500"/>
  <line x1="20.945" y1="1.829" x2="21.971" y2="1.133" stroke="#1f77b4" stroke-width="0.500"/>
  <path d="M 21.971 1.133 A 22.000 22.000 0 0 0 21.971 -1.133" fill="none" stroke="#1f77b4" stroke-width="0.500"/>
  <line x1="21.971" y1="-1.133" x2="20.945" y2="-1.829" stroke="#1f77b4" stroke-width="0.500"/>
  <line x1="20.945" y1="-1.829" x2="20.063" y2="-2.319" stroke="#1f77b4" stroke-width="0.500"/>
  <line x1="20.063" y1="-2.319" x2="19.312" y2="-2.658" stroke="#1f77b4" stroke-width="0.500"/>
  <line x1="19.312" y1="-2.658" x2="18.678" y2="-2.887" stroke="#1f77b4" stroke-width="0.500"/>
  <line x1="18.678" y1="-2.887" x2="18.149" y2="-3.037" stroke="#1f77b4" stroke-width="0.500"/>
  <line x1="18.149" y1="-3.037" x2="17.712" y2="-3.128" stroke="#1f77b4" stroke-width="0.500"/>
  <line x1="17.712" y1="-3.128" x2="17.358" y2="-3.178" stroke="#1f77b4" stroke-width="0.500"/>
  <line x1="17.358" y1="-3.178" x2="17.080" y2="-3.200" stroke="#1f77b4" stroke-width="0.500"/>
  <line x1="17.080" y1="-3.200" x2="16.871" y2="-3.204" stroke="#1f77b4" stroke-width="0.500"/>
  <line x1="16.871" y1="-3.204" x2="16.725" y2="-3.198" stroke="#1f77b4" stroke-width="0.500"/>
  <line x1="16.725" y1="-3.198" x2="16.640" y2="-3.189" stroke="#1f77b4" stroke-width="0.500"/>
  <line x1="16.640" y1="-3.189" x2="16.612" y2="-3.185" stroke="#1f77b4" stroke-width="0.500"/>
  <line x1="16.612" y1="-3.185" x2="12.767" y2="-2.448" stroke="#1f77b4" stroke-width="0.500"/>
  <path d="M 12.767 -2.448 A 13.000 13.000 0 0 0 11.354 -6.331" fill="none" stroke="#1f77b4" stroke-width="0.500"/>
  <line x1="11.354" y1="-6.331" x2="14.773" y2="-8.238" stroke="#1f77b4" stroke-width="0.500"/>
  <line x1="14.773" y1="-8.238" x2="14.797" y2="-8.253" stroke="#1f77b4" stroke-width="0.500"/>
  <line x1="14.797" y1="-8.253" x2="14.868" y2="-8.301" stroke="#1f77b4" stroke-width="0.500"/>
  <line x1="14.868" y1="-8.301" x2="14.983" y2="-8.390" stroke="#1f77b4" stroke-width="0.500"/>
  <line x1="14.983" y1="-8.390" x2="15.141" y2="-8.527" stroke="#1f77b4" stroke-width="0.500"/>
  <line x1="15.141" y1="-8.527" x2="15.340" y2="-8.723" stroke="#1f77b4" stroke-width="0.500"/>
  <line x1="15.340" y1="-8.723" x2="15.579" y2="-8.988" stroke="#1f77b4" stroke-width="0.500"/>
  <line x1="15.579" y1="-8.988" x2="15.855" y2="-9.339" stroke="#1f77b4" stroke-width="0.500"/>
  <line x1="15.855" y1="-9.339" x2="16.164" y2="-9.794" stroke="#1f77b4" stroke-width="0.500"/>
  <line x1="16.164" y1="-9.794" x2="16.503" y2="-10.378" stroke="#1f77b4" stroke-width="0.500"/>
  <line x1="16.503" y1="-10.378" x2="16.860" y2="-11.120" stroke="#1f77b4" stroke-width="0.500"/>
  <line x1="16.860" y1="-11.120" x2="17.221" y2="-12.062" stroke="#1f77b4" stroke-width="0.500"/>
  <line x1="17.221" y1="-12.062" x2="17.559" y2="-13.255" stroke="#1f77b4" stroke-width="0.500"/>
  <path d="M 17.559 -13.255 A 22.000 22.000 0 0 0 16.102 -14.990" fill="none" stroke="#1f77b4" stroke-width="0.500"/>
  <line x1="16.102" y1="-14.990" x2="14.869" y2="-14.864" stroke="#1f77b4" stroke-width="0.500"/>
  <line x1="14.869" y1="-14.864" x2="13.879" y2="-14.673" stroke="#1f77b4" stroke-width="0.500"/>
  <line x1="13.879" y1="-14.673" x2="13.086" y2="-14.450" stroke="#1f77b4" stroke-width="0.500"/>
  <line x1="13.086" y1="-14.450" x2="12.453" y2="-14.218" stroke="#1f77b4" stroke-width="0.500"/>
  <line x1="12.453" y1="-14.218" x2="11.951" y2="-13.992" stroke="#1f77b4" stroke-width="0.500"/>
  <line x1="11.951" y1="-13.992" x2="11.557" y2="-13.781" stroke="#1f77b4" stroke-width="0.500"/>
  <line x1="11.557" y1="-13.781" x2="11.254" y2="-13.592" stroke="#1f77b4" stroke-width="0.500"/>
  <line x1="11.254" y1="-13.592" x2="11.027" y2="-13.430" stroke="#1f77b4" stroke-width="0.500"/>
  <line x1="11.027" y1="-13.430" x2="10.864" y2="-13.299" stroke="#1f77b4" stroke-width="0.500"/>
  <line x1="10.864" y1="-13.299" x2="10.757" y2="-13.200" stroke="#1f77b4" stroke-width="0.500"/>
  <line x1="10.757" y1="-13.200" x2="10.697" y2="-13.139" stroke="#1f77b4" stroke-width="0.500"/>
  <line x1="10.697" y1="-13.139" x2="10.678" y2="-13.118" stroke="#1f77b4" stroke-width="0.500"/>
  <line x1="10.678" y1="-13.118" x2="8.207" y2="-10.082" stroke="#1f77b4" stroke-width="0.500"/>
  <path d="M 8.207 -10.082 A 13.000 13.000 0 0 0 4.628 -12.148" fill="none" stroke="#1f77b4" stroke-width="0.500"/>
  <line x1="4.628" y1="-12.148" x2="6.021" y2="-15.806" stroke="#1f77b4" stroke-width="0.500"/>
  <line x1="6.021" y1="-15.806" x2="6.030" y2="-15.833" stroke="#1f77b4" stroke-width="0.500"/>
  <line x1="6.030" y1="-15.833" x2="6.054" y2="-15.916" stroke="#1f77b4" stroke-width="0.500"/>
  <line x1="6.054" y1="-15.916" x2="6.085" y2="-16.058" stroke="#1f77b4" stroke-width="0.500"/>
  <line x1="6.085" y1="-16.058" x2="6.118" y2="-16.265" stroke="#1f77b4" stroke-width="0.500"/>
  <line x1="6.118" y1="-16.265" x2="6.144" y2="-16.542" stroke="#1f77b4" stroke-width="0.500"/>
  <line x1="6.144" y1="-16.542" x2="6.156" y2="-16.899" stroke="#1f77b4" stroke-width="0.500"/>
  <line x1="6.156" y1="-16.899" x2="6.142" y2="-17.346" stroke="#1f77b4" stroke-width="0.500"/>
  <line x1="6.142" y1="-17.346" x2="6.087" y2="-17.893" stroke="#1f77b4" stroke-width="0.500"/>
  <line x1="6.087" y1="-17.893" x2="5.971" y2="-18.557" stroke="#1f77b4" stroke-width="0.500"/>
  <line x1="5.971" y1="-18.557" x2="5.768" y2="-19.356" stroke="#1f77b4" stroke-width="0.500"/>
  <line x1="5.768" y1="-19.356" x2="5.439" y2="-20.309" stroke="#1f77b4" stroke-width="0.500"/>
  <line x1="5.439" y1="-20.309" x2="4.931" y2="-21.440" stroke="#1f77b4" stroke-width="0.500"/>
  <path d="M 4.931 -21.440 A 22.000 22.000 0 0 0 2.700 -21.834" fill="none" stroke="#1f77b4" stroke-width="0.500"/>
  <line x1="2.700" y1="-21.834" x2="1.836" y2="-20.944" stroke="#1f77b4" stroke-width="0.500"/>
  <line x1="1.836" y1="-20.944" x2="1.200" y2="-20.161" stroke="#1f77b4" stroke-width="0.500"/>
  <line x1="1.200" y1="-20.161" x2="0.736" y2="-19.481" stroke="#1f77b4" stroke-width="0.500"/>
  <line x1="0.736" y1="-19.481" x2="0.400" y2="-18.896" stroke="#1f77b4" stroke-width="0.500"/>
  <line x1="0.400" y1="-18.896" x2="0.161" y2="-18.400" stroke="#1f77b4" stroke-width="0.500"/>
  <line x1="0.161" y1="-18.400" x2="-0.005" y2="-17.986" stroke="#1f77b4" stroke-width="0.500"/>
  <line x1="-0.005" y1="-17.986" x2="-0.116" y2="-17.646" stroke="#1f77b4" stroke-width="0.500"/>
  <line x1="-0.116" y1="-17.646" x2="-0.186" y2="-17.376" stroke="#1f77b4" stroke-width="0.500"/>
  <line x1="-0.186" y1="-17.376" x2="-0.226" y2="-17.171" stroke="#1f77b4" stroke-width="0.500"/>
  <line x1="-0.226" y1="-17.171" x2="-0.245" y2="-17.026" stroke="#1f77b4" stroke-width="0.500"/>
  <line x1="-0.245" y1="-17.026" x2="-0.251" y2="-16.941" stroke="#1f77b4" stroke-width="0.500"/>
  <line x1="-0.251" y1="-16.941" x2="-0.252" y2="-16.913" stroke="#1f77b4" stroke-width="0.500"/>
  <line x1="-0.252" y1="-16.913" x2="-0.194" y2="-12.999" stroke="#1f77b4" stroke-width="0.500"/>
  <path d="M -0.194 -12.999 A 13.000 13.000 0 0 0 -4.264 -12.281" fill="none" stroke="#1f77b4" stroke-width="0.500"/>
  <line x1="-4.264" y1="-12.281" x2="-5.548" y2="-15.979" stroke="#1f77b4" stroke-width="0.500"/>
  <line x1="-5.548" y1="-15.979" x2="-5.558" y2="-16.005" stroke="#1f77b4" stroke-width="0.500"/>
  <line x1="-5.558" y1="-16.005" x2="-5.593" y2="-16.083" stroke="#1f77b4" stroke-width="0.500"/>
  <line x1="-5.593" y1="-16.083" x2="-5.661" y2="-16.212" stroke="#1f77b4" stroke-width="0.500"/>
  <line x1="-5.661" y1="-16.212" x2="-5.768" y2="-16.392" stroke="#1f77b4" stroke-width="0.500"/>
  <line x1="-5.768" y1="-16.392" x2="-5.926" y2="-16.622" stroke="#1f77b4" stroke-width="0.500"/>
  <line x1="-5.926" y1="-16.622" x2="-6.147" y2="-16.903" stroke="#1f77b4" stroke-width="0.500"/>
  <line x1="-6.147" y1="-16.903" x2="-6.444" y2="-17.236" stroke="#1f77b4" stroke-width="0.500"/>
  <line x1="-6.444" y1="-17.236" x2="-6.839" y2="-17.620" stroke="#1f77b4" stroke-width="0.500"/>
  <line x1="-6.839" y1="-17.620" x2="-7.354" y2="-18.054" stroke="#1f77b4" stroke-width="0.500"/>
  <line x1="-7.354" y1="-18.054" x2="-8.024" y2="-18.535" stroke="#1f77b4" stroke-width="0.500"/>
  <line x1="-8.024" y1="-18.535" x2="-8.888" y2="-19.054" stroke="#1f77b4" stroke-width="0.500"/>
  <line x1="-8.888" y1="-19.054" x2="-10.004" y2="-19.594" stroke="#1f77b4" stroke-width="0.500"/>
  <path d="M -10.004 -19.594 A 22.000 22.000 0 0 0 -11.966 -18.461" fill="none" stroke="#1f77b4" stroke-width="0.500"/>
  <line x1="-11.966" y1="-18.461" x2="-12.057" y2="-17.224" stroke="#1f77b4" stroke-width="0.500"/>
  <line x1="-12.057" y1="-17.224" x2="-12.040" y2="-16.216" stroke="#1f77b4" stroke-width="0.500"/>
  <line x1="-12.040" y1="-16.216" x2="-11.958" y2="-15.396" stroke="#1f77b4" stroke-width="0.500"/>
  <line x1="-11.958" y1="-15.396" x2="-11.840" y2="-14.732" stroke="#1f77b4" stroke-width="0.500"/>
  <line x1="-11.840" y1="-14.732" x2="-11.704" y2="-14.199" stroke="#1f77b4" stroke-width="0.500"/>
  <line x1="-11.704" y1="-14.199" x2="-11.565" y2="-13.775" stroke="#1f77b4" stroke-width="0.500"/>
  <line x1="-11.565" y1="-13.775" x2="-11.432" y2="-13.443" stroke="#1f77b4" stroke-width="0.500"/>
  <line x1="-11.432" y1="-13.443" x2="-11.311" y2="-13.191" stroke="#1f77b4" stroke-width="0.500"/>
  <line x1="-11.311" y1="-13.191" x2="-11.210" y2="-13.008" stroke="#1f77b4" stroke-width="0.500"/>
  <line x1="-11.210" y1="-13.008" x2="-11.132" y2="-12.886" stroke="#1f77b4" stroke-width="0.500"/>
  <line x1="-11.132" y1="-12.886" x2="-11.082" y2="-12.816" stroke="#1f77b4" stroke-width="0.500"/>
  <line x1="-11.082" y1="-12.816" x2="-11.064" y2="-12.794" stroke="#1f77b4" stroke-width="0.500"/>
  <line x1="-11.064" y1="-12.794" x2="-8.504" y2="-9.833" stroke="#1f77b4" stroke-width="0.500"/>
  <path d="M -8.504 -9.833 A 13.000 13.000 0 0 0 -11.160 -6.667" fill="none" stroke="#1f77b4" stroke-width="0.500"/>
  <line x1="-11.160" y1="-6.667" x2="-14.521" y2="-8.675" stroke="#1f77b4" stroke-width="0.500"/>
  <line x1="-14.521" y1="-8.675" x2="-14.546" y2="-8.688" stroke="#1f77b4" stroke-width="0.500"/>
  <line x1="-14.546" y1="-8.688" x2="-14.623" y2="-8.725" stroke="#1f77b4" stroke-width="0.500"/>
  <line x1="-14.623" y1="-8.725" x2="-14.757" y2="-8.781" stroke="#1f77b4" stroke-width="0.500"/>
  <line x1="-14.757" y1="-8.781" x2="-14.955" y2="-8.849" stroke="#1f77b4" stroke-width="0.500"/>
  <line x1="-14.955" y1="-8.849" x2="-15.224" y2="-8.924" stroke="#1f77b4" stroke-width="0.500"/>
  <line x1="-15.224" y1="-8.924" x2="-15.574" y2="-8.997" stroke="#1f77b4" stroke-width="0.500"/>
  <line x1="-15.574" y1="-8.997" x2="-16.015" y2="-9.061" stroke="#1f77b4" stroke-width="0.500"/>
  <line x1="-16.015" y1="-9.061" x2="-16.564" y2="-9.102" stroke="#1f77b4" stroke-width="0.500"/>
  <line x1="-16.564" y1="-9.102" x2="-17.239" y2="-9.103" stroke="#1f77b4" stroke-width="0.500"/>
  <line x1="-17.239" y1="-9.103" x2="-18.060" y2="-9.041" stroke="#1f77b4" stroke-width="0.500"/>
  <line x1="-18.060" y1="-9.041" x2="-19.056" y2="-8.883" stroke="#1f77b4" stroke-width="0.500"/>
  <line x1="-19.056" y1="-8.883" x2="-20.258" y2="-8.579" stroke="#1f77b4" stroke-width="0.500"/>
  <path d="M -20.258 -8.579 A 22.000 22.000 0 0 0 -21.033 -6.450" fill="none" stroke="#1f77b4" stroke-width="0.500"/>
  <line x1="-21.033" y1="-6.450" x2="-20.308" y2="-5.445" stroke="#1f77b4" stroke-width="0.500"/>
  <line x1="-20.308" y1="-5.445" x2="-19.646" y2="-4.683" stroke="#1f77b4" stroke-width="0.500"/>
  <line x1="-19.646" y1="-4.683" x2="-19.057" y2="-4.108" stroke="#1f77b4" stroke-width="0.500"/>
  <line x1="-19.057" y1="-4.108" x2="-18.539" y2="-3.675" stroke="#1f77b4" stroke-width="0.500"/>
  <line x1="-18.539" y1="-3.675" x2="-18.093" y2="-3.354" stroke="#1f77b4" stroke-width="0.500"/>
  <line x1="-18.093" y1="-3.354" x2="-17.713" y2="-3.118" stroke="#1f77b4" stroke-width="0.500"/>
  <line x1="-17.713" y1="-3.118" x2="-17.398" y2="-2.950" stroke="#1f77b4" stroke-width="0.500"/>
  <line x1="-17.398" y1="-2.950" x2="-17.144" y2="-2.834" stroke="#1f77b4" stroke-width="0.500"/>
  <line x1="-17.144" y1="-2.834" x2="-16.949" y2="-2.759" stroke="#1f77b4" stroke-width="0.500"/>
  <line x1="-16.949" y1="-2.759" x2="-16.810" y2="-2.715" stroke="#1f77b4" stroke-width="0.500"/>
  <line x1="-16.810" y1="-2.715" x2="-16.727" y2="-2.694" stroke="#1f77b4" stroke-width="0.500"/>
  <line x1="-16.727" y1="-2.694" x2="-16.699" y2="-2.689" stroke="#1f77b4" stroke-width="0.500"/>
  <line x1="-16.699" y1="-2.689" x2="-12.835" y2="-2.066" stroke="#1f77b4" stroke-width="0.500"/>
  <path d="M -12.835 -2.066 A 13.000 13.000 0 0 0 -12.835 2.066" fill="none" stroke="#1f77b4" stroke-width="0.500"/>
  <line x1="-12.835" y1="2.066" x2="-16.699" y2="2.689" stroke="#1f77b4" stroke-width="0.500"/>
  <line x1="-16.699" y1="2.689" x2="-16.727" y2="2.694" stroke="#1f77b4" stroke-width="0.500"/>
  <line x1="-16.727" y1="2.694" x2="-16.810" y2="2.715" stroke="#1f77b4" stroke-width="0.500"/>
  <line x1="-16.810" y1="2.715" x2="-16.949" y2="2.759" stroke="#1f77b4" stroke-width="0.500"/>
  <line x1="-16.949" y1="2.759" x2="-17.144" y2="2.834" stroke="#1f77b4" stroke-width="0.500"/>
  <line x1="-17.144" y1="2.834" x2="-17.398" y2="2.950" stroke="#1f77b4" stroke-width="0.500"/>
  <line x1="-17.398" y1="2.950" x2="-17.713" y2="3.118" stroke="#1f77b4" stroke-width="0.500"/>
  <line x1="-17.713" y1="3.118" x2="-18.093" y2="3.354" stroke="#1f77b4" stroke-width="0.500"/>
  <line x1="-18.093" y1="3.354" x2="-18.539" y2="3.675" stroke="#1f77b4" stroke-width="0.500"/>
  <line x1="-18.539" y1="3.675" x2="-19.057" y2="4.108" stroke="#1f77b4" stroke-width="0.500"/>
  <line x1="-19.057" y1="4.108" x2="-19.646" y2="4.683" stroke="#1f77b4" stroke-width="0.500"/>
  <line x1="-19.646" y1="4.683" x2="-20.308" y2="5.445" stroke="#1f77b4" stroke-width="0.500"/>
  <line x1="-20.308" y1="5.445" x2="-21.033" y2="6.450" stroke="#1f77b4" stroke-width="0.500"/>
  <path d="M -21.033 6.450 A 22.000 22.000 0 0 0 -20.258 8.579" fill="none" stroke="#1f77b4" stroke-width="0.500"/>
  <line x1="-20.258" y1="8.579" x2="-19.056" y2="8.883" stroke="#1f77b4" stroke-width="0.500"/>
  <line x1="-19.056" y1="8.883" x2="-18.060" y2="9.041" stroke="#1f77b4" stroke-width="0.500"/>
  <line x1="-18.060" y1="9.041" x2="-17.239" y2="9.103" stroke="#1f77b4" stroke-width="0.500"/>
  <line x1="-17.239" y1="9.103" x2="-16.564" y2="9.102" stroke="#1f77b4" stroke-width="0.500"/>
  <line x1="-16.564" y1="9.102" x2="-16.015" y2="9.061" stroke="#1f77b4" stroke-width="0.500"/>
  <line x1="-16.015" y1="9.061" x2="-15.574" y2="8.997" stroke="#1f77b4" stroke-width="0.500"/>
  <line x1="-15.574" y1="8.997" x2="-15.224" y2="8.924" stroke="#1f77b4" stroke-width="0.500"/>
  <line x1="-15.224" y1="8.924" x2="-14.955" y2="8.849" stroke="#1f77b4" stroke-width="0.500"/>
  <line x1="-14.955" y1="8.849" x2="-14.757" y2="8.781" stroke="#1f77b4" stroke-width="0.500"/>
  <line x1="-14.757" y1="8.781" x2="-14.623" y2="8.725" stroke="#1f77b4" stroke-width="0.500"/>
  <line x1="-14.623" y1="8.725" x2="-14.546" y2="8.688" stroke="#1f77b4" stroke-width="0.500"/>
  <line x1="-14.546" y1="8.688" x2="-14.521" y2="8.675" stroke="#1f77b4" stroke-width="0.500"/>
  <line x1="-14.521" y1="8.675" x2="-11.160" y2="6.667" stroke="#1f77b4" stroke-width="0.500"/>
  <path d="M -11.160 6.667 A 13.000 13.000 0 0 0 -8.504 9.833" fill="none" stroke="#1f77b4" stroke-width="0.500"/>
  <line x1="-8.504" y1="9.833" x2="-11.064" y2="12.794" stroke="#1f77b4" stroke-width="0.500"/>
  <line x1="-11.064" y1="12.794" x2="-11.082" y2="12.816" stroke="#1f77b4" stroke-width="0.500"/>
  <line x1="-11.082" y1="12.816" x2="-11.132" y2="12.886" stroke="#1f77b4" stroke-width="0.500"/>
  <line x1="-11.132" y1="12.886" x2="-11.210" y2="13.008" stroke="#1f77b4" stroke-width="0.500"/>
  <line x1="-11.210" y1="13.008" x2="-11.311" y2="13.191" stroke="#1f77b4" stroke-width="0.500"/>
  <line x1="-11.311" y1="13.191" x2="-11.432" y2="13.443" stroke="#1f77b4" stroke-width="0.500"/>
  <line x1="-11.432" y1="13.443" x2="-11.565" y2="13.775" stroke="#1f77b4" stroke-width="0.500"/>
  <line x1="-11.565" y1="13.775" x2="-11.704" y2="14.199" stroke="#1f77b4" stroke-width="0.500"/>
  <line x1="-11.704" y1="14.199" x2="-11.840" y2="14.732" stroke="#1f77b4" stroke-width="0.500"/>
  <line x1="-11.840" y1="14.732" x2="-11.958" y2="15.396" stroke="#1f77b4" stroke-width="0.500"/>
  <line x1="-11.958" y1="15.396" x2="-12.040" y2="16.216" stroke="#1f77b4" stroke-width="0.500"/>
  <line x1="-12.040" y1="16.216" x2="-12.057" y2="17.224" stroke="#1f77b4" stroke-width="0.500"/>
  <line x1="-12.057" y1="17.224" x2="-11.966" y2="18.461" stroke="#1f77b4" stroke-width="0.500"/>
  <path d="M -11.966 18.461 A 22.000 22.000 0 0 0 -10.004 19.594" fill="none" stroke="#1f77b4" stroke-width="0.500"/>
  <line x1="-10.004" y1="19.594" x2="-8.888" y2="19.054" stroke="#1f77b4" stroke-width="0.500"/>
  <line x1="-8.888" y1="19.054" x2="-8.024" y2="18.535" stroke="#1f77b4" stroke-width="0.500"/>
  <line x1="-8.024" y1="18.535" x2="-7.354" y2="18.054" stroke="#1f77b4" stroke-width="0.500"/>
  <line x1="-7.354" y1="18.054" x2="-6.839" y2="17.620" stroke="#1f77b4" stroke-width="0.500"/>
  <line x1="-6.839" y1="17.620" x2="-6.444" y2="17.236" stroke="#1f77b4" stroke-width="0.500"/>
  <line x1="-6.444" y1="17.236" x2="-6.147" y2="16.903" stroke="#1f77b4" stroke-width="0.500"/>
  <line x1="-6.147" y1="16.903" x2="-5.926" y2="16.622" stroke="#1f77b4" stroke-width="0.500"/>
  <line x1="-5.926" y1="16.622" x2="-5.768" y2="16.392" stroke="#1f77b4" stroke-width="0.500"/>
  <line x1="-5.768" y1="16.392" x2="-5.661" y2="16.212" stroke="#1f77b4" stroke-width="0.500"/>
  <line x1="-5.661" y1="16.212" x2="-5.593" y2="16.083" stroke="#1f77b4" stroke-width="0.500"/>
  <line x1="-5.593" y1="16.083" x2="-5.558" y2="16.005" stroke="#1f77b4" stroke-width="0.500"/>
  <line x1="-5.558" y1="16.005" x2="-5.548" y2="15.979" stroke="#1f77b4" stroke-width="0.500"/>
  <line x1="-5.548" y1="15.979" x2="-4.264" y2="12.281" stroke="#1f77b4" stroke-width="0.500"/>
  <path d="M -4.264 12.281 A 13.000 13.000 0 0 0 -0.194 12.999" fill="none" stroke="#1f77b4" stroke-width="0.500"/>
  <line x1="-0.194" y1="12.999" x2="-0.252" y2="16.913" stroke="#1f77b4" stroke-width="0.500"/>
  <line x1="-0.252" y1="16.913" x2="-0.251" y2="16.941" stroke="#1f77b4" stroke-width="0.500"/>
  <line x1="-0.251" y1="16.941" x2="-0.245" y2="17.026" stroke="#1f77b4" stroke-width="0.500"/>
  <line x1="-0.245" y1="17.026" x2="-0.226" y2="17.171" stroke="#1f77b4" stroke-width="0.500"/>
  <line x1="-0.226" y1="17.171" x2="-0.186" y2="17.376" stroke="#1f77b4" stroke-width="0.500"/>
  <line x1="-0.186" y1="17.376" x2="-0.116" y2="17.646" stroke="#1f77b4" stroke-width="0.500"/>
  <line x1="-0.116" y1="17.646" x2="-0.005" y2="17.986" stroke="#1f77b4" stroke-width="0.500"/>
  <line x1="-0.005" y1="17.986" x2="0.161" y2="18.400" stroke="#1f77b4" stroke-width="0.500"/>
  <line x1="0.161" y1="18.400" x2="0.400" y2="18.896" stroke="#1f77b4" stroke-width="0.500"/>
  <line x1="0.400" y1="18.896" x2="0.736" y2="19.481" stroke="#1f77b4" stroke-width="0.500"/>
  <line x1="0.736" y1="19.481" x2="1.200" y2="20.161" stroke="#1f77b4" stroke-width="0.500"/>
  <line x1="1.200" y1="20.161" x2="1.836" y2="20.944" stroke="#1f77b4" stroke-width="0.500"/>
  <line x1="1.836" y1="20.944" x2="2.700" y2="21.834" stroke="#1f77b4" stroke-width="0.500"/>
  <path d="M 2.700 21.834 A 22.000 22.000 0 0 0 4.931 21.440" fill="none" stroke="#1f77b4" stroke-width="0.500"/>
  <line x1="4.931" y1="21.440" x2="5.439" y2="20.309" stroke="#1f77b4" stroke-width="0.500"/>
  <line x1="5.439" y1="20.309" x2="5.768" y2="19.356" stroke="#1f77b4" stroke-width="0.500"/>
  <line x1="5.768" y1="19.356" x2="5.971" y2="18.557" stroke="#1f77b4" stroke-width="0.500"/>
  <line x1="5.971" y1="18.557" x2="6.087" y2="17.893" stroke="#1f77b4" stroke-width="0.500"/>
  <line x1="6.087" y1="17.893" x2="6.142" y2="17.346" stroke="#1f77b4" stroke-width="0.500"/>
  <line x1="6.142" y1="17.346" x2="6.156" y2="16.899" stroke="#1f77b4" stroke-width="0.500"/>
  <line x1="6.156" y1="16.899" x2="6.144" y2="16.542" stroke="#1f77b4" stroke-width="0.500"/>
  <line x1="6.144" y1="16.542" x2="6.118" y2="16.265" stroke="#1f77b4" stroke-width="0.500"/>
  <line x1="6.118" y1="16.265" x2="6.085" y2="16.058" stroke="#1f77b4" stroke-width="0.500"/>
  <line x1="6.085" y1="16.058" x2="6.054" y2="15.916" stroke="#1f77b4" stroke-width="0.500"/>
  <line x1="6.054" y1="15.916" x2="6.030" y2="15.833" stroke="#1f77b4" stroke-width="0.500"/>
  <line x1="6.030" y1="15.833" x2="6.021" y2="15.806" stroke="#1f77b4" stroke-width="0.500"/>
  <line x1="6.021" y1="15.806" x2="4.628" y2="12.148" stroke="#1f77b4" stroke-width="0.500"/>
  <path d="M 4.628 12.148 A 13.000 13.000 0 0 0 8.207 10.082" fill="none" stroke="#1f77b4" stroke-width="0.500"/>
  <line x1="8.207" y1="10.082" x2="10.678" y2="13.118" stroke="#1f77b4" stroke-width="0.500"/>
  <line x1="10.678" y1="13.118" x2="10.697" y2="13.139" stroke="#1f77b4" stroke-width="0.500"/>
  <line x1="10.697" y1="13.139" x2="10.757" y2="13.200" stroke="#1f77b4" stroke-width="0.500"/>
  <line x1="10.757" y1="13.200" x2="10.864" y2="13.299" stroke="#1f77b4" stroke-width="0.500"/>
  <line x1="10.864" y1="13.299" x2="11.027" y2="13.430" stroke="#1f77b4" stroke-width="0.500"/>
  <line x1="11.027" y1="13.430" x2="11.254" y2="13.592" stroke="#1f77b4" stroke-width="0.500"/>
  <line x1="11.254" y1="13.592" x2="11.557" y2="13.781" stroke="#1f77b4" stroke-width="0.500"/>
  <line x1="11.557" y1="13.781" x2="11.951" y2="13.992" stroke="#1f77b4" stroke-width="0.500"/>
  <line x1="11.951" y1="13.992" x2="12.453" y2="14.218" stroke="#1f77b4" stroke-width="0.500"/>
  <line x1="12.453" y1="14.218" x2="13.086" y2="14.450" stroke="#1f77b4" stroke-width="0.500"/>
  <line x1="13.086" y1="14.450" x2="13.879" y2="14.673" stroke="#1f77b4" stroke-width="0.500"/>
  <line x1="13.879" y1="14.673" x2="14.869" y2="14.864" stroke="#1f77b4" stroke-width="0.500"/>
  <line x1="14.869" y1="14.864" x2="16.102" y2="14.990" stroke="#1f77b4" stroke-width="0.500"/>
  <path d="M 16.102 14.990 A 22.000 22.000 0 0 0 17.559 13.255" fill="none" stroke="#1f77b4" stroke-width="0.500"/>
  <line x1="17.559" y1="13.255" x2="17.221" y2="12.062" stroke="#1f77b4" stroke-width="0.500"/>
  <line x1="17.221" y1="12.062" x2="16.860" y2="11.120" stroke="#1f77b4" stroke-width="0.500"/>
  <line x1="16.860" y1="11.120" x2="16.503" y2="10.378" stroke="#1f77b4" stroke-width="0.500"/>
  <line x1="16.503" y1="10.378" x2="16.164" y2="9.794" stroke="#1f77b4" stroke-width="0.500"/>
  <line x1="16.164" y1="9.794" x2="15.855" y2="9.339" stroke="#1f77b4" stroke-width="0.500"/>
  <line x1="15.855" y1="9.339" x2="15.579" y2="8.988" stroke="#1f77b4" stroke-width="0.500"/>
  <line x1="15.579" y1="8.988" x2="15.340" y2="8.723" stroke="#1f77b4" stroke-width="0.500"/>
  <line x1="15.340" y1="8.723" x2="15.141" y2="8.527" stroke="#1f77b4" stroke-width="0.500"/>
  <line x1="15.141" y1="8.527" x2="14.983" y2="8.390" stroke="#1f77b4" stroke-width="0.500"/>
  <line x1="14.983" y1="8.390" x2="14.868" y2="8.301" stroke="#1f77b4" stroke-width="0.500"/>
  <line x1="14.868" y1="8.301" x2="14.797" y2="8.253" stroke="#1f77b4" stroke-width="0.500"/>
  <line x1="14.797" y1="8.253" x2="14.773" y2="8.238" stroke="#1f77b4" stroke-width="0.500"/>
  <line x1="14.773" y1="8.238" x2="11.354" y2="6.331" stroke="#1f77b4" stroke-width="0.500"/>
  <path d="M 11.354 6.331 A 13.000 13.000 0 0 0 12.767 2.448" fill="none" stroke="#1f77b4" stroke-width="0.500"/>
  <circle cx="0.000" cy="0.000" r="5.000" fill="none" stroke="#1f77b4" stroke-width="0.500"/>
</svg>
